<mxfile host="app.diagrams.net" agent="Mozilla/5.0 (X11; Linux x86_64; rv:132.0) Gecko/20100101 Firefox/132.0" version="24.8.4">
  <diagram id="R2lEEEUBdFMjLlhIrx00" name="Page-1">
    <mxGraphModel dx="1365" dy="599" grid="1" gridSize="10" guides="1" tooltips="1" connect="1" arrows="1" fold="1" page="1" pageScale="1" pageWidth="850" pageHeight="1100" math="0" shadow="0" extFonts="Permanent Marker^https://fonts.googleapis.com/css?family=Permanent+Marker">
      <root>
        <mxCell id="0" />
        <mxCell id="1" parent="0" />
        <mxCell id="6EzivG75NOuCyRAAwWFl-9" style="edgeStyle=orthogonalEdgeStyle;rounded=0;orthogonalLoop=1;jettySize=auto;html=1;exitX=0;exitY=1;exitDx=0;exitDy=0;" edge="1" parent="1" source="6EzivG75NOuCyRAAwWFl-1" target="6EzivG75NOuCyRAAwWFl-6">
          <mxGeometry relative="1" as="geometry" />
        </mxCell>
        <mxCell id="6EzivG75NOuCyRAAwWFl-10" value="" style="edgeStyle=orthogonalEdgeStyle;rounded=0;orthogonalLoop=1;jettySize=auto;html=1;" edge="1" parent="1" source="6EzivG75NOuCyRAAwWFl-1" target="6EzivG75NOuCyRAAwWFl-5">
          <mxGeometry relative="1" as="geometry" />
        </mxCell>
        <mxCell id="6EzivG75NOuCyRAAwWFl-11" style="edgeStyle=orthogonalEdgeStyle;rounded=0;orthogonalLoop=1;jettySize=auto;html=1;exitX=0;exitY=0;exitDx=0;exitDy=0;" edge="1" parent="1" source="6EzivG75NOuCyRAAwWFl-1" target="6EzivG75NOuCyRAAwWFl-3">
          <mxGeometry relative="1" as="geometry" />
        </mxCell>
        <mxCell id="6EzivG75NOuCyRAAwWFl-1" value="customer" style="whiteSpace=wrap;html=1;" vertex="1" parent="1">
          <mxGeometry x="180" y="150" width="120" height="60" as="geometry" />
        </mxCell>
        <mxCell id="6EzivG75NOuCyRAAwWFl-3" value="name" style="ellipse;whiteSpace=wrap;html=1;" vertex="1" parent="1">
          <mxGeometry x="70" y="50" width="100" height="30" as="geometry" />
        </mxCell>
        <mxCell id="6EzivG75NOuCyRAAwWFl-4" value="address" style="ellipse;whiteSpace=wrap;html=1;" vertex="1" parent="1">
          <mxGeometry x="50" y="130" width="100" height="30" as="geometry" />
        </mxCell>
        <mxCell id="6EzivG75NOuCyRAAwWFl-5" value="customerID" style="ellipse;whiteSpace=wrap;html=1;" vertex="1" parent="1">
          <mxGeometry x="190" y="50" width="100" height="30" as="geometry" />
        </mxCell>
        <mxCell id="6EzivG75NOuCyRAAwWFl-6" value="gender" style="ellipse;whiteSpace=wrap;html=1;" vertex="1" parent="1">
          <mxGeometry x="40" y="200" width="100" height="30" as="geometry" />
        </mxCell>
        <mxCell id="6EzivG75NOuCyRAAwWFl-8" style="edgeStyle=orthogonalEdgeStyle;rounded=0;orthogonalLoop=1;jettySize=auto;html=1;entryX=0.768;entryY=0.912;entryDx=0;entryDy=0;entryPerimeter=0;" edge="1" parent="1" source="6EzivG75NOuCyRAAwWFl-1" target="6EzivG75NOuCyRAAwWFl-4">
          <mxGeometry relative="1" as="geometry" />
        </mxCell>
        <mxCell id="6EzivG75NOuCyRAAwWFl-12" value="" style="whiteSpace=wrap;html=1;" vertex="1" parent="1">
          <mxGeometry x="360" y="200" width="120" height="60" as="geometry" />
        </mxCell>
      </root>
    </mxGraphModel>
  </diagram>
</mxfile>
